# xmcd
#
# Track frame offsets:
#	150
#	14626
#	29664
#	55231
#	77077
#	95364
#	112101
#	127566
#	147735
#	161656
#	182237
#	209826
#
# Disc length: 3040 seconds
#
# Revision: 1
# Processed by: cddbd v1.5.2PL0 Copyright (c) Steve Scherf et al.
# Submitted via: audiograbber 1.82.02
#
DISCID=b10bde0c
DTITLE=Robin Trower - 20th Century Blues
DYEAR=1994
DGENRE=Blues
TTITLE0=20th Century Blues 
TTITLE1=Prisoner Of Love 
TTITLE2=Precious Gift 
TTITLE3=Whisper Up A Storm 
TTITLE4=Extermination Blues 
TTITLE5=Step Into The Dark 
TTITLE6=Rise Up Like The Sun 
TTITLE7=Secret Place 
TTITLE8=Chase The Bone 
TTITLE9=Promise You The Stars 
TTITLE10=Don't Lose Faith In Tomorrow 
TTITLE11=Reconsider Baby 
EXTD=Dream`Master Special
EXTT0=
EXTT1=
EXTT2=
EXTT3=
EXTT4=
EXTT5=
EXTT6=
EXTT7=
EXTT8=
EXTT9=
EXTT10=
EXTT11=
PLAYORDER=
